# xmcd
# 
# Track frame offsets:
#     150
#     18411
#     38886
#     63805
#     84397
#     99069
#     119680
#     132307
#     153579
#     170188
#     186061
#     202362
#     217481
#     234685
#     245280
# 
# Disc length: 3594
# 
# Revision: 0
# Processed by: cddbd v1.5.2PL0 Copyright (c) Steve Scherf et al.
# Submitted via: fre:ac v1.0.27
# 
DISCID=db0e080f
DTITLE=Trevor Baker - Unwanted Treasure
DYEAR=2009
DGENRE=Country
TTITLE0=Stars and Strips aren't Enough
TTITLE1=Unwanted Treasure
TTITLE2=My Best Friend
TTITLE3=Dotted Line
TTITLE4=Church Hot off the Press
TTITLE5=Step Back (Museum)
TTITLE6=Return to What?
TTITLE7=Square One
TTITLE8=Slow Down and Look Up
TTITLE9=Grandma Hit the Rhubarb
TTITLE10=Goodbye Freedom
TTITLE11=Individual Spirit
TTITLE12=That's For Me
TTITLE13=Album overview
TTITLE14=Soldiers
EXTD=
EXTT0=
EXTT1=
EXTT2=
EXTT3=
EXTT4=
EXTT5=
EXTT6=
EXTT7=
EXTT8=
EXTT9=
EXTT10=
EXTT11=
EXTT12=
EXTT13=
EXTT14=
PLAYORDER=
